REM DIRINDEX 1\2\3,1\2\4,1\2\5,1\2\6
REM DIRNAME cjc157,folder01,folder02,folder03,folder04,folder05
TITLE ""
FILE "093 093.mp3" MP3
  TRACK 01 AUDIO
    TITLE "0:"
    INDEX 01 00:00:00
  TRACK 02 AUDIO
    TITLE "3:cjc157_3513"
    INDEX 01 00:00:11
  TRACK 03 AUDIO
    TITLE "0:"
    INDEX 01 00:01:11
  TRACK 04 AUDIO
    TITLE "4:cjc157_3514"
    INDEX 01 00:01:54
  TRACK 05 AUDIO
    TITLE "0:"
    INDEX 01 00:02:61
  TRACK 06 AUDIO
    TITLE "5:cjc157_3515"
    INDEX 01 00:03:33
  TRACK 07 AUDIO
    TITLE "0:"
    INDEX 01 00:05:20
  TRACK 08 AUDIO
    TITLE "5:cjc157_3516"
    INDEX 01 00:05:71
  TRACK 09 AUDIO
    TITLE "0:"
    INDEX 01 00:09:69
  TRACK 10 AUDIO
    TITLE "3:cjc157_3517"
    INDEX 01 00:10:39
  TRACK 11 AUDIO
    TITLE "0:"
    INDEX 01 00:11:50
  TRACK 12 AUDIO
    TITLE "4:cjc157_3518"
    INDEX 01 00:12:20
  TRACK 13 AUDIO
    TITLE "0:"
    INDEX 01 00:13:35
  TRACK 14 AUDIO
    TITLE "5:cjc157_3519"
    INDEX 01 00:14:02
  TRACK 15 AUDIO
    TITLE "0:"
    INDEX 01 00:16:16
  TRACK 16 AUDIO
    TITLE "5:cjc157_3520"
    INDEX 01 00:16:61
  TRACK 17 AUDIO
    TITLE "0:"
    INDEX 01 00:20:06
  TRACK 18 AUDIO
    TITLE "3:cjc157_3521"
    INDEX 01 00:20:51
  TRACK 19 AUDIO
    TITLE "0:"
    INDEX 01 00:21:58
  TRACK 20 AUDIO
    TITLE "4:cjc157_3522"
    INDEX 01 00:22:30
  TRACK 21 AUDIO
    TITLE "0:"
    INDEX 01 00:23:26
  TRACK 22 AUDIO
    TITLE "5:cjc157_3523"
    INDEX 01 00:23:71
  TRACK 23 AUDIO
    TITLE "0:"
    INDEX 01 00:26:50
  TRACK 24 AUDIO
    TITLE "5:cjc157_3524"
    INDEX 01 00:27:22
  TRACK 25 AUDIO
    TITLE "0:"
    INDEX 01 00:29:05
  TRACK 26 AUDIO
    TITLE "3:cjc157_3525"
    INDEX 01 00:29:46
  TRACK 27 AUDIO
    TITLE "0:"
    INDEX 01 00:30:63
  TRACK 28 AUDIO
    TITLE "4:cjc157_3526"
    INDEX 01 00:31:33
  TRACK 29 AUDIO
    TITLE "0:"
    INDEX 01 00:32:60
  TRACK 30 AUDIO
    TITLE "5:cjc157_3527"
    INDEX 01 00:33:26
  TRACK 31 AUDIO
    TITLE "0:"
    INDEX 01 00:35:29
  TRACK 32 AUDIO
    TITLE "5:cjc157_3528"
    INDEX 01 00:36:01
  TRACK 33 AUDIO
    TITLE "0:"
    INDEX 01 00:38:26
  TRACK 34 AUDIO
    TITLE "3:cjc157_3529"
    INDEX 01 00:38:71
  TRACK 35 AUDIO
    TITLE "0:"
    INDEX 01 00:40:21
  TRACK 36 AUDIO
    TITLE "4:cjc157_3530"
    INDEX 01 00:40:68
  TRACK 37 AUDIO
    TITLE "0:"
    INDEX 01 00:42:18
  TRACK 38 AUDIO
    TITLE "5:cjc157_3531"
    INDEX 01 00:42:61
  TRACK 39 AUDIO
    TITLE "0:"
    INDEX 01 00:46:17
  TRACK 40 AUDIO
    TITLE "5:cjc157_3532"
    INDEX 01 00:46:60
  TRACK 41 AUDIO
    TITLE "0:"
    INDEX 01 00:48:48
  TRACK 42 AUDIO
    TITLE "3:cjc157_3533"
    INDEX 01 00:49:18
  TRACK 43 AUDIO
    TITLE "0:"
    INDEX 01 00:50:39
  TRACK 44 AUDIO
    TITLE "4:cjc157_3534"
    INDEX 01 00:51:07
  TRACK 45 AUDIO
    TITLE "0:"
    INDEX 01 00:52:14
  TRACK 46 AUDIO
    TITLE "5:cjc157_3535"
    INDEX 01 00:52:57
  TRACK 47 AUDIO
    TITLE "0:"
    INDEX 01 00:55:30
  TRACK 48 AUDIO
    TITLE "3:cjc157_3536"
    INDEX 01 00:56:00
  TRACK 49 AUDIO
    TITLE "0:"
    INDEX 01 00:57:29
  TRACK 50 AUDIO
    TITLE "4:cjc157_3537"
    INDEX 01 00:58:03
  TRACK 51 AUDIO
    TITLE "0:"
    INDEX 01 00:59:41
  TRACK 52 AUDIO
    TITLE "5:cjc157_3538"
    INDEX 01 01:00:12
  TRACK 53 AUDIO
    TITLE "0:"
    INDEX 01 01:03:00
  TRACK 54 AUDIO
    TITLE "3:cjc157_3539"
    INDEX 01 01:03:45
  TRACK 55 AUDIO
    TITLE "0:"
    INDEX 01 01:04:64
  TRACK 56 AUDIO
    TITLE "4:cjc157_3540"
    INDEX 01 01:05:36
  TRACK 57 AUDIO
    TITLE "0:"
    INDEX 01 01:06:49
  TRACK 58 AUDIO
    TITLE "5:cjc157_3541"
    INDEX 01 01:07:17
  TRACK 59 AUDIO
    TITLE "0:"
    INDEX 01 01:09:09
  TRACK 60 AUDIO
    TITLE "3:cjc157_3542"
    INDEX 01 01:09:54
  TRACK 61 AUDIO
    TITLE "0:"
    INDEX 01 01:10:67
  TRACK 62 AUDIO
    TITLE "4:cjc157_3543"
    INDEX 01 01:11:37
  TRACK 63 AUDIO
    TITLE "0:"
    INDEX 01 01:13:04
  TRACK 64 AUDIO
    TITLE "5:cjc157_3544"
    INDEX 01 01:13:49
  TRACK 65 AUDIO
    TITLE "0:"
    INDEX 01 01:16:26
  TRACK 66 AUDIO
    TITLE "3:cjc157_3545"
    INDEX 01 01:17:02
  TRACK 67 AUDIO
    TITLE "0:"
    INDEX 01 01:17:69
  TRACK 68 AUDIO
    TITLE "4:cjc157_3546"
    INDEX 01 01:18:45
  TRACK 69 AUDIO
    TITLE "0:"
    INDEX 01 01:19:46
  TRACK 70 AUDIO
    TITLE "5:cjc157_3547"
    INDEX 01 01:20:20
  TRACK 71 AUDIO
    TITLE "0:"
    INDEX 01 01:22:07
